# xmcd
#
# Track frame offsets: 
#        150
#        5472
#        10850
#        14825
#        23500
#        32627
#        40177
#        42077
#        46797
#        53222
#        58250
#        68450
#        85675
#        92870
#        97070
#        104267
#        107720
#        112967
#        118145
#        133367
#        137795
#        140042
#        144092
#        147925
#
# Disc length: 2076 seconds
#
# Revision: 3
# Processed by: cddbd v1.5.1PL2 Copyright (c) Steve Scherf et al.
# Submitted via: ExactAudioCopy v0.95b4
#
DISCID=4c081a18
DTITLE=Dirty Rotten Imbeciles - Dealing With It
DYEAR=1985
DGENRE=Rock
TTITLE0=Snap
TTITLE1=I'd Rather Be Sleeping
TTITLE2=Marriage
TTITLE3=Yes Ma'am
TTITLE4=Soup Kitchen
TTITLE5=Mad Man
TTITLE6=Stupid, Stupid War
TTITLE7=Counter Attack
TTITLE8=Couch Slouch
TTITLE9=God Is Broke
TTITLE10=Karma
TTITLE11=Nursing Home Blues
TTITLE12=I Don't Need Society
TTITLE13=Give My Taxes Back
TTITLE14=The Explorer
TTITLE15=Reagonomics
TTITLE16=How To Act
TTITLE17=Shame
TTITLE18=Argument Then War
TTITLE19=Evil Minds
TTITLE20=Slit My Wrist
TTITLE21=Busted Again
TTITLE22=Equal People
TTITLE23=On My Way Home
EXTD=
EXTT0=
EXTT1=
EXTT2=
EXTT3=
EXTT4=
EXTT5=
EXTT6=
EXTT7=
EXTT8=
EXTT9=
EXTT10=
EXTT11=
EXTT12=
EXTT13=
EXTT14=
EXTT15=
EXTT16=
EXTT17=
EXTT18=
EXTT19=
EXTT20=
EXTT21=
EXTT22=
EXTT23=
PLAYORDER=
